<svg xmlns="http://www.w3.org/2000/svg" width="108" height="18" viewBox="0 0 108 18"><path fill="#fff" d="M5.84 10.68L5.00 10.68L4.23 16.94L0.51 16.94L2.55 0.18L7.64 0.18Q9.18 0.18 10.26 0.51Q11.35 0.84 12.04 1.41Q12.73 1.99 13.05 2.78Q13.36 3.56 13.36 4.48L13.36 4.48Q13.36 5.42 13.12 6.24Q12.87 7.07 12.40 7.77Q11.93 8.46 11.24 9.00Q10.56 9.53 9.68 9.88L9.68 9.88Q10.03 10.07 10.33 10.35Q10.64 10.63 10.81 11.04L10.81 11.04L13.25 16.94L9.87 16.94Q9.40 16.94 9.07 16.76Q8.75 16.57 8.63 16.23L8.63 16.23L6.81 11.27Q6.68 10.95 6.47 10.82Q6.26 10.68 5.84 10.68L5.84 10.68ZM7.29 2.98L5.96 2.98L5.32 8.10L6.69 8.10Q7.50 8.10 8.06 7.85Q8.63 7.60 8.98 7.19Q9.33 6.77 9.48 6.22Q9.64 5.67 9.64 5.06L9.64 5.06Q9.64 4.59 9.50 4.20Q9.36 3.82 9.07 3.55Q8.77 3.28 8.33 3.13Q7.89 2.98 7.29 2.98L7.29 2.98ZM20.79 14.00L20.79 14.00Q21.49 14.00 22.07 13.73Q22.64 13.45 23.08 12.95Q23.52 12.45 23.80 11.74Q24.09 11.03 24.20 10.14L24.20 10.14L25.41 0.18L29.16 0.18L27.95 10.14Q27.75 11.67 27.13 12.95Q26.52 14.24 25.54 15.16Q24.55 16.09 23.25 16.61Q21.95 17.12 20.40 17.12L20.40 17.12Q19.00 17.12 17.90 16.70Q16.80 16.27 16.05 15.50Q15.29 14.72 14.90 13.64Q14.51 12.56 14.51 11.26L14.51 11.26Q14.51 10.72 14.58 10.14L14.58 10.14L15.78 0.18L19.53 0.18L18.31 10.14Q18.29 10.35 18.27 10.55Q18.26 10.75 18.26 10.95L18.26 10.95Q18.26 12.37 18.91 13.18Q19.56 14.00 20.79 14.00ZM35.53 16.94L29.28 16.94L31.35 0.18L37.10 0.18Q38.56 0.18 39.60 0.46Q40.64 0.74 41.30 1.25Q41.96 1.76 42.27 2.48Q42.57 3.20 42.57 4.07L42.57 4.07Q42.57 4.76 42.39 5.40Q42.22 6.04 41.83 6.58Q41.45 7.12 40.84 7.56Q40.23 8.00 39.36 8.30L39.36 8.30Q40.72 8.67 41.37 9.45Q42.02 10.22 42.02 11.41L42.02 11.41Q42.02 12.57 41.58 13.58Q41.14 14.58 40.30 15.33Q39.46 16.08 38.25 16.51Q37.05 16.94 35.53 16.94L35.53 16.94ZM36.32 9.79L33.90 9.79L33.37 14.12L35.83 14.12Q36.52 14.12 37.00 13.92Q37.47 13.72 37.76 13.36Q38.05 12.99 38.19 12.51Q38.32 12.03 38.32 11.45L38.32 11.45Q38.32 11.07 38.22 10.76Q38.12 10.45 37.89 10.24Q37.65 10.03 37.27 9.91Q36.88 9.79 36.32 9.79L36.32 9.79ZM34.73 2.98L34.20 7.30L35.99 7.30Q36.63 7.30 37.13 7.18Q37.64 7.05 38.00 6.74Q38.36 6.44 38.56 5.93Q38.75 5.43 38.75 4.68L38.75 4.68Q38.75 3.75 38.27 3.36Q37.78 2.98 36.75 2.98L36.75 2.98L34.73 2.98ZM58.72 0.18L51.85 10.52L51.06 16.94L47.31 16.94L48.10 10.56L43.79 0.18L47.13 0.18Q47.61 0.18 47.88 0.41Q48.15 0.63 48.28 1.00L48.28 1.00L49.89 6.07Q50.05 6.58 50.18 7.05Q50.31 7.52 50.40 7.96L50.40 7.96Q50.62 7.52 50.89 7.06Q51.15 6.59 51.45 6.07L51.45 6.07L54.30 1.00Q54.48 0.69 54.81 0.44Q55.14 0.18 55.61 0.18L55.61 0.18L58.72 0.18ZM68.31 16.94L62.05 16.94L64.12 0.18L69.87 0.18Q71.33 0.18 72.38 0.46Q73.42 0.74 74.08 1.25Q74.74 1.76 75.04 2.48Q75.35 3.20 75.35 4.07L75.35 4.07Q75.35 4.76 75.17 5.40Q74.99 6.04 74.61 6.58Q74.22 7.12 73.61 7.56Q73.00 8.00 72.14 8.30L72.14 8.30Q73.50 8.67 74.15 9.45Q74.80 10.22 74.80 11.41L74.80 11.41Q74.80 12.57 74.35 13.58Q73.91 14.58 73.07 15.33Q72.23 16.08 71.03 16.51Q69.83 16.94 68.31 16.94L68.31 16.94ZM69.09 9.79L66.68 9.79L66.15 14.12L68.61 14.12Q69.30 14.12 69.77 13.92Q70.24 13.72 70.54 13.36Q70.83 12.99 70.96 12.51Q71.09 12.03 71.09 11.45L71.09 11.45Q71.09 11.07 71.00 10.76Q70.90 10.45 70.66 10.24Q70.43 10.03 70.04 9.91Q69.66 9.79 69.09 9.79L69.09 9.79ZM67.50 2.98L66.98 7.30L68.77 7.30Q69.40 7.30 69.91 7.18Q70.41 7.05 70.78 6.74Q71.14 6.44 71.33 5.93Q71.53 5.43 71.53 4.68L71.53 4.68Q71.53 3.75 71.04 3.36Q70.55 2.98 69.53 2.98L69.53 2.98L67.50 2.98ZM92.32 7.49L92.32 7.49Q92.32 8.84 92.01 10.09Q91.69 11.33 91.11 12.40Q90.53 13.47 89.71 14.34Q88.88 15.21 87.86 15.83Q86.84 16.44 85.64 16.78Q84.44 17.12 83.12 17.12L83.12 17.12Q81.47 17.12 80.15 16.54Q78.83 15.96 77.91 14.96Q76.99 13.95 76.50 12.59Q76.02 11.22 76.02 9.65L76.02 9.65Q76.02 8.29 76.33 7.04Q76.65 5.80 77.23 4.73Q77.81 3.66 78.64 2.78Q79.47 1.91 80.49 1.29Q81.51 0.68 82.71 0.34Q83.90-0.00 85.24-0.00L85.24-0.00Q86.88-0.00 88.20 0.58Q89.52 1.16 90.43 2.17Q91.34 3.19 91.83 4.55Q92.32 5.92 92.32 7.49ZM88.48 7.58L88.48 7.58Q88.48 6.54 88.23 5.70Q87.99 4.85 87.51 4.25Q87.03 3.65 86.34 3.32Q85.65 2.99 84.78 2.99L84.78 2.99Q83.63 2.99 82.72 3.47Q81.81 3.94 81.17 4.81Q80.53 5.67 80.20 6.88Q79.86 8.10 79.86 9.57L79.86 9.57Q79.86 10.60 80.10 11.44Q80.34 12.28 80.80 12.88Q81.27 13.48 81.96 13.81Q82.65 14.13 83.54 14.13L83.54 14.13Q84.69 14.13 85.60 13.66Q86.51 13.19 87.15 12.33Q87.79 11.47 88.14 10.26Q88.48 9.05 88.48 7.58ZM107.41 0.18L100.54 10.52L99.75 16.94L96.00 16.94L96.80 10.56L92.48 0.18L95.82 0.18Q96.30 0.18 96.57 0.41Q96.84 0.63 96.97 1.00L96.97 1.00L98.58 6.07Q98.74 6.58 98.87 7.05Q99.00 7.52 99.10 7.96L99.10 7.96Q99.31 7.52 99.58 7.06Q99.84 6.59 100.14 6.07L100.14 6.07L102.99 1.00Q103.17 0.69 103.50 0.44Q103.83 0.18 104.30 0.18L104.30 0.18L107.41 0.18Z"></path></svg>